<?xml version="1.0" encoding="UTF-8" standalone="no"?>
<!DOCTYPE svg PUBLIC "-//W3C//DTD SVG 1.1//EN" "http://www.w3.org/Graphics/SVG/1.1/DTD/svg11.dtd">
<svg width="100%" height="100%" viewBox="0 0 700 560" version="1.1" xmlns="http://www.w3.org/2000/svg" xmlns:xlink="http://www.w3.org/1999/xlink" xml:space="preserve" xmlns:serif="http://www.serif.com/" style="fill-rule:evenodd;clip-rule:evenodd;stroke-linejoin:round;stroke-miterlimit:2;">
    <rect id="Artboard1" x="0" y="0" width="699.5" height="560" style="fill:none;"/>
    <g id="Artboard11" serif:id="Artboard1">
        <g>
            <path d="M563.5,101C556,101 548.5,101.5 540.5,103C522.5,42 467.5,0 403.5,0C354,0 308,26 282,68C264,58.5 244,54 223.5,54C153,54 95,111 93.5,182C41.5,183.5 0,226.5 0,279C0,333 43.5,376.5 96.5,376.5C102,376.5 106.5,372 106.5,366.5C106.5,361 102,356.5 96.5,356.5C54,356.5 20,321.5 20,279C20,236.5 54.5,201.5 96.5,201.5C98.5,201.5 100.5,201.5 102.5,202C105.5,202 108,201 110.5,199C112.5,197 113.5,194 113.5,191.5L113.5,185C113.5,123.5 163,74 223.5,74C243.5,74 263,79.5 280.5,90C281,90 281,90.5 281.5,90.5C301,102.5 316.5,121 325,142.5C326.5,146.5 330.5,148.5 334.5,148.5C336,148.5 337,148.5 338.5,147.5C343.5,145.5 346,139.5 344,134.5C335,112 319,92.5 299.5,78C321.5,42 360.5,20 403.5,20C458.5,20 505.5,55.5 521,108C484,120 453,148 437.5,184.5C435.5,189.5 437.5,195.5 443,197.5C444.5,198 445.5,198.5 447,198.5C451,198.5 454.5,196 456,192.5C470.5,159 499.5,134 534.5,125L535.5,125C545,122.5 554,121.5 563,121.5C627.5,121.5 679.5,174.5 679.5,239.5C679.5,304.5 627,357.5 563,357.5C557.5,357.5 553,362 553,367.5C553,373 557.5,377.5 563,377.5C638.5,377.5 699.5,315.5 699.5,239.5C699.5,163.5 638.5,101 563.5,101Z" style="fill-rule:nonzero;"/>
            <path d="M229.5,284C225.5,279 217.5,279 213.5,284L118,409C115.5,412 115.5,416 117,419.5C118.5,423 122,425 126,425L184,425L184,550C184,555.5 188.5,560 194,560L248.5,560C254,560 258.5,555.5 258.5,550L258.5,425L316.5,425C320.5,425 324,423 325.5,419.5C327,416 327,412 324.5,409L229.5,284ZM249,405C243.5,405 239,409.5 239,415L239,540L204.5,540L204.5,415C204.5,409.5 200,405 194.5,405L146.5,405L221.5,306.5L296.5,405L249,405Z" style="fill-rule:nonzero;"/>
            <path d="M573.5,415L515.5,415L515.5,290C515.5,284.5 511,280 505.5,280L451,280C445.5,280 441,284.5 441,290L441,415L383,415C379,415 375.5,417 374,420.5C372.5,424 372.5,428 375,431L470.5,556C472.5,558.5 475.5,560 478.5,560C481.5,560 484.5,558.5 486.5,556L582,431C584.5,428 584.5,424 583,420.5C581,417 577.5,415 573.5,415ZM478,533.5L403,435L451,435C456.5,435 461,430.5 461,425L461,300L495.5,300L495.5,425C495.5,430.5 500,435 505.5,435L553.5,435L478,533.5Z" style="fill-rule:nonzero;"/>
        </g>
    </g>
</svg>
