<?xml version="1.0" encoding="UTF-8" standalone="no"?>
<!DOCTYPE svg PUBLIC "-//W3C//DTD SVG 1.1//EN" "http://www.w3.org/Graphics/SVG/1.1/DTD/svg11.dtd">
<svg width="100%" height="100%" viewBox="0 0 486 434" version="1.1" xmlns="http://www.w3.org/2000/svg" xmlns:xlink="http://www.w3.org/1999/xlink" xml:space="preserve" xmlns:serif="http://www.serif.com/" style="fill-rule:evenodd;clip-rule:evenodd;stroke-linejoin:round;stroke-miterlimit:2;">
    <g id="Artboard1" transform="matrix(1,0,0,1,-108.262,-83.443)">
        <rect x="108.262" y="83.443" width="485.329" height="433.157" style="fill:none;"/>
        <clipPath id="_clip1">
            <rect x="108.262" y="83.443" width="485.329" height="433.157"/>
        </clipPath>
        <g clip-path="url(#_clip1)">
            <g transform="matrix(1,0,0,1,0.262094,0.443)">
                <path d="M546.98,399L546.98,381.266L576.796,381.266L576.796,367.266L546.984,367.266L546.98,128.416C546.98,92.838 420.63,83.443 353.82,83.443C287.011,83.443 160.66,92.841 160.66,128.416L160.66,363.536L131.598,363.536L131.598,377.536L160.66,377.536L160.66,399.001L108.262,399.001L108.262,413.001L161.133,413.001C169.336,445.622 289.313,454.396 353.813,454.396C418.325,454.396 538.293,445.627 546.493,413.001L593.591,413.001L593.591,399.001L546.98,399ZM489,334.711L489,255.356C493.273,254.465 497.379,253.508 501.324,252.493L501.324,331.727C497.551,332.742 493.43,333.738 489,334.711ZM501.324,346.152L501.324,425.386C497.543,426.398 493.43,427.398 489,428.37L489,349.015C493.273,348.125 497.375,347.168 501.324,346.152L501.324,346.152ZM501.324,158.822L501.324,238.06C497.543,239.072 493.43,240.072 489,241.044L489,161.689C493.273,160.795 497.375,159.838 501.324,158.822L501.324,158.822ZM515.324,248.384C522.172,246.056 528.101,243.446 532.976,240.568L532.976,315.759C532.976,318.989 526.972,323.161 515.324,327.392L515.324,248.384ZM515.324,233.724L515.324,154.712C522.172,152.384 528.101,149.774 532.976,146.896L532.976,222.087C532.98,225.321 526.976,229.493 515.324,233.724L515.324,233.724ZM353.824,97.444C469.754,97.444 532.984,117.905 532.984,128.417C532.984,138.929 469.75,159.39 353.824,159.39C237.904,159.39 174.664,138.929 174.664,128.417C174.664,117.905 237.898,97.444 353.824,97.444ZM174.664,146.893C209.344,167.389 300.514,173.393 353.824,173.393C387.105,173.393 435.152,171.057 475.004,164.315L475.004,243.823C445.324,249.128 404.641,253.057 353.824,253.057C237.904,253.057 174.664,232.596 174.664,222.084L174.664,146.893ZM174.664,240.565C209.344,261.061 300.514,267.057 353.824,267.057C387.105,267.057 435.152,264.721 475.004,257.987L475.004,337.491C445.324,342.788 404.641,346.721 353.824,346.721C237.904,346.721 174.664,326.264 174.664,315.752L174.664,240.565ZM174.664,409.415L174.664,334.231C209.344,354.723 300.514,360.723 353.824,360.723C387.105,360.723 435.152,358.387 475.004,351.653L475.004,431.157C445.324,436.461 404.641,440.391 353.824,440.391C237.894,440.395 174.664,419.926 174.664,409.414L174.664,409.415ZM515.324,421.057L515.324,342.044C522.172,339.716 528.101,337.11 532.976,334.228L532.976,409.416C532.98,412.654 526.976,416.826 515.324,421.057Z" style="fill-rule:nonzero;"/>
                <rect x="137.97" y="465.27" width="283.9" height="14" style="fill-rule:nonzero;"/>
                <rect x="445.2" y="465.27" width="116.66" height="14" style="fill-rule:nonzero;"/>
                <rect x="224.93" y="502.6" width="260.4" height="14" style="fill-rule:nonzero;"/>
                <path d="M197.86,203.93C201.723,203.93 204.86,200.793 204.86,196.93L204.86,192.266C204.86,188.403 201.723,185.266 197.86,185.266C193.997,185.266 190.86,188.403 190.86,192.266L190.86,196.93C190.86,200.797 193.997,203.93 197.86,203.93Z" style="fill-rule:nonzero;"/>
                <path d="M197.86,299.44C201.723,299.44 204.86,296.303 204.86,292.44L204.86,287.776C204.86,283.913 201.723,280.776 197.86,280.776C193.997,280.776 190.86,283.913 190.86,287.776L190.86,292.44C190.86,296.303 193.997,299.44 197.86,299.44Z" style="fill-rule:nonzero;"/>
                <path d="M197.86,374.73C193.997,374.73 190.86,377.867 190.86,381.73L190.86,386.394C190.86,390.257 193.997,393.394 197.86,393.394C201.723,393.394 204.86,390.257 204.86,386.394L204.86,381.73C204.86,377.867 201.731,374.73 197.86,374.73Z" style="fill-rule:nonzero;"/>
            </g>
        </g>
    </g>
</svg>
