<?xml version="1.0" encoding="UTF-8" standalone="no"?>
<!DOCTYPE svg PUBLIC "-//W3C//DTD SVG 1.1//EN" "http://www.w3.org/Graphics/SVG/1.1/DTD/svg11.dtd">
<svg width="100%" height="100%" viewBox="0 0 405 487" version="1.1" xmlns="http://www.w3.org/2000/svg" xmlns:xlink="http://www.w3.org/1999/xlink" xml:space="preserve" xmlns:serif="http://www.serif.com/" style="fill-rule:evenodd;clip-rule:evenodd;stroke-linejoin:round;stroke-miterlimit:2;">
    <g id="Artboard1" transform="matrix(1,0,0,1,-147.999,-36.538)">
        <rect x="147.999" y="36.538" width="404.019" height="486.944" style="fill:none;"/>
        <clipPath id="_clip1">
            <rect x="147.999" y="36.538" width="404.019" height="486.944"/>
        </clipPath>
        <g clip-path="url(#_clip1)">
            <g transform="matrix(1,0,0,1,0.99915,0.538)">
                <path d="M374.64,284.2L303.46,319.79C302.995,320.02 302.612,320.38 302.351,320.809C302.093,321.224 301.952,321.724 301.952,322.259L301.952,413.318L374.37,372.623C375.069,372.232 375.624,371.677 376.007,371.029C376.382,370.388 376.589,369.631 376.589,368.826L376.589,285.107C376.589,284.865 376.546,284.669 376.468,284.529C376.382,284.376 376.241,284.236 376.054,284.119C375.862,284.001 375.675,283.939 375.503,283.927C375.331,283.919 375.132,283.97 374.917,284.079L374.64,284.2ZM284.929,168.58C282.753,170.756 279.222,170.756 277.046,168.58C274.87,166.404 274.87,162.873 277.046,160.697L295.819,141.924C297.995,139.744 301.526,139.744 303.702,141.924L322.475,160.697C324.655,162.873 324.655,166.404 322.475,168.58C320.299,170.756 316.768,170.756 314.592,168.58L305.303,159.291L305.264,200.119C305.264,203.185 302.776,205.674 299.709,205.674C296.643,205.674 294.155,203.185 294.155,200.119L294.194,159.314L284.929,168.58ZM433.909,381.16C433.261,378.156 435.171,375.187 438.179,374.539C441.182,373.89 444.151,375.801 444.8,378.808L450.499,404.738C451.147,407.746 449.237,410.711 446.229,411.359L420.299,417.059C417.295,417.707 414.327,415.797 413.678,412.789C413.03,409.781 414.94,406.817 417.948,406.168L430.374,403.438L391.452,379.575C388.831,377.973 387.999,374.551 389.6,371.93C391.202,369.309 394.623,368.477 397.245,370.078L436.804,394.336L433.909,381.164L433.909,381.16ZM180.529,411.187C183.584,411.488 185.818,414.206 185.517,417.265C185.217,420.32 182.498,422.554 179.439,422.253L153.369,419.605C151.74,419.542 150.154,418.777 149.104,417.371C148.158,416.101 147.834,414.558 148.076,413.113L150.725,387.078C151.025,384.023 153.748,381.789 156.803,382.09C159.858,382.39 162.092,385.113 161.791,388.168L160.385,401.992L197.725,374.086C200.19,372.242 203.682,372.75 205.522,375.218C207.362,377.683 206.854,381.175 204.389,383.015L168.342,409.956L180.53,411.195L180.529,411.187ZM282.189,96.487C282.189,99.565 279.689,102.061 276.615,102.061C273.537,102.061 271.041,99.561 271.041,96.487L271.041,81.792C271.041,69.339 276.13,58.026 284.326,49.827C292.525,41.628 303.842,36.538 316.295,36.538L498.585,36.538C511.038,36.538 522.351,41.628 530.55,49.827C538.745,58.022 543.835,69.339 543.835,81.788L543.835,101.976C545.612,102.96 547.182,104.269 548.456,105.824C550.674,108.538 552.018,111.996 552.018,115.769L552.018,159.851C552.018,163.62 550.678,167.078 548.456,169.792C547.182,171.347 545.612,172.66 543.835,173.644L543.835,176.996C545.612,177.976 547.182,179.289 548.456,180.843C550.674,183.554 552.018,187.015 552.018,190.785L552.018,216.965C552.018,220.711 550.674,224.187 548.448,226.933C547.178,228.504 545.612,229.828 543.838,230.828L543.838,478.228C543.838,490.677 538.749,501.994 530.553,510.193C522.354,518.392 511.041,523.482 498.588,523.482L316.298,523.482C303.845,523.482 292.532,518.392 284.333,510.193C276.134,501.994 271.044,490.681 271.044,478.228L271.044,448.267C271.044,445.189 273.541,442.693 276.619,442.693C279.697,442.693 282.193,445.189 282.193,448.267L282.193,478.228C282.193,487.599 286.033,496.123 292.213,502.306C298.396,508.49 306.92,512.326 316.295,512.326L498.585,512.326C507.956,512.326 516.48,508.486 522.663,502.306C528.846,496.122 532.683,487.599 532.683,478.228L532.683,227.058L532.691,227.058C532.687,224.484 534.484,222.167 537.105,221.613C538.179,221.382 539.132,220.769 539.82,219.921C540.472,219.117 540.863,218.089 540.863,216.964L540.863,190.784C540.863,189.691 540.472,188.687 539.827,187.898C539.195,187.124 538.339,186.554 537.378,186.288C534.714,185.866 532.679,183.562 532.679,180.78L532.679,169.846L532.687,169.846C532.683,167.272 534.48,164.956 537.101,164.401C538.179,164.171 539.14,163.569 539.824,162.729C540.468,161.94 540.859,160.936 540.859,159.843L540.859,115.761C540.859,114.667 540.468,113.659 539.824,112.874C539.191,112.1 538.335,111.526 537.374,111.264C534.71,110.843 532.675,108.538 532.675,105.757L532.675,81.78C532.675,72.409 528.839,63.885 522.655,57.702C516.472,51.518 507.948,47.682 498.577,47.682L316.287,47.682C306.912,47.682 298.389,51.521 292.205,57.702C286.022,63.885 282.185,72.409 282.185,81.78L282.185,96.475L282.189,96.487ZM300.763,448.277C300.763,446.226 302.427,444.558 304.478,444.558C306.529,444.558 308.197,446.226 308.197,448.277L308.197,478.234C308.197,480.465 309.103,482.492 310.56,483.949L310.568,483.957L310.576,483.949C312.044,485.418 314.068,486.328 316.29,486.328L498.58,486.328C500.807,486.328 502.83,485.414 504.295,483.949C505.764,482.48 506.674,480.457 506.674,478.234L506.674,81.794C506.674,79.563 505.768,77.536 504.307,76.079L504.299,76.071L504.291,76.079C502.822,74.61 500.799,73.7 498.576,73.7L469.385,73.7C465.991,78.212 461.674,81.845 456.799,84.423C451.417,87.263 445.358,88.814 439.108,88.814L374.374,88.814C368.281,88.814 362.386,87.232 357.198,84.345C352.562,81.767 348.507,78.15 345.397,73.7L316.292,73.7C314.066,73.7 312.042,74.614 310.578,76.079L310.41,76.235C309.039,77.681 308.195,79.641 308.195,81.798L308.195,96.493C308.195,98.544 306.527,100.208 304.476,100.208C302.425,100.208 300.761,98.543 300.761,96.493L300.761,81.798C300.761,77.649 302.417,73.86 305.105,71.064L305.32,70.829C308.132,68.017 312.019,66.267 316.293,66.267L347.402,66.267L347.402,66.275C348.648,66.279 349.867,66.907 350.566,68.052L350.652,68.189C353.207,72.298 356.718,75.599 360.8,77.868C364.87,80.134 369.527,81.376 374.37,81.376L439.104,81.376C444.151,81.376 449.026,80.134 453.338,77.857C457.658,75.576 461.432,72.255 464.272,68.095C464.92,66.997 466.112,66.263 467.475,66.263L498.569,66.263C502.842,66.263 506.729,68.009 509.542,70.826L509.534,70.833C512.351,73.654 514.101,77.536 514.101,81.798L514.101,478.238C514.101,482.512 512.354,486.395 509.542,489.207C506.729,492.024 502.843,493.77 498.569,493.77L316.279,493.77C312.006,493.77 308.119,492.024 305.306,489.207L305.314,489.2C302.497,486.379 300.747,482.496 300.747,478.235L300.747,448.278L300.763,448.277ZM371.63,276.857L300.689,236.552C299.962,236.138 299.189,235.931 298.423,235.931C297.658,235.931 296.884,236.138 296.158,236.552L225.217,276.857L297.19,312.845C297.588,313.044 298.002,313.142 298.424,313.142C298.846,313.142 299.26,313.044 299.659,312.845L371.63,276.857ZM304.349,230.107L377.408,271.619C378.416,272.193 379.205,273.002 379.732,273.963C380.252,274.908 380.51,275.994 380.474,277.131C380.463,277.463 380.428,277.791 380.369,278.107C381.455,278.865 382.322,279.826 382.943,280.939C383.65,282.205 384.025,283.627 384.025,285.119L384.025,368.838C384.025,370.947 383.447,372.998 382.396,374.787C381.353,376.568 379.853,378.076 378.006,379.111L304.889,420.197L304.885,420.19L304.877,420.197C303.795,420.803 302.619,421.1 301.428,421.088C300.373,421.076 299.33,420.826 298.361,420.334C298.228,420.276 298.1,420.213 297.971,420.139L297.83,420.053C296.9,420.498 295.908,420.725 294.908,420.737C293.709,420.748 292.525,420.451 291.447,419.846L218.326,378.76C216.479,377.725 214.975,376.217 213.936,374.436C212.885,372.643 212.307,370.596 212.307,368.483L212.307,284.768C212.307,283.432 212.658,281.428 213.318,279.721C213.963,278.053 214.967,276.518 216.385,275.643L216.525,275.561C216.65,274.998 216.85,274.463 217.123,273.963C217.654,273.002 218.44,272.193 219.447,271.619L292.506,230.107C294.393,229.037 296.413,228.498 298.428,228.498C300.448,228.498 302.467,229.033 304.35,230.107L304.349,230.107ZM294.806,319.877C294.497,319.756 294.189,319.615 293.884,319.463L220.15,282.596C219.881,283.369 219.74,284.205 219.74,284.764L219.74,368.479C219.74,369.284 219.947,370.045 220.322,370.682C220.701,371.33 221.259,371.889 221.955,372.28L294.455,413.018C294.474,412.924 294.498,412.838 294.521,412.752L294.521,322.268C294.521,321.452 294.623,320.651 294.81,319.874L294.806,319.877Z" style="fill-rule:nonzero;"/>
            </g>
        </g>
    </g>
</svg>
