<?xml version="1.0" encoding="UTF-8" standalone="no"?>
<!DOCTYPE svg PUBLIC "-//W3C//DTD SVG 1.1//EN" "http://www.w3.org/Graphics/SVG/1.1/DTD/svg11.dtd">
<svg width="100%" height="100%" viewBox="0 0 549 549" version="1.1" xmlns="http://www.w3.org/2000/svg" xmlns:xlink="http://www.w3.org/1999/xlink" xml:space="preserve" xmlns:serif="http://www.serif.com/" style="fill-rule:evenodd;clip-rule:evenodd;stroke-linejoin:round;stroke-miterlimit:2;">
    <g id="Artboard1" transform="matrix(1,0,0,1,-75.6002,-5.57326)">
        <rect x="75.6" y="5.573" width="548.802" height="548.823" style="fill:none;"/>
        <clipPath id="_clip1">
            <rect x="75.6" y="5.573" width="548.802" height="548.823"/>
        </clipPath>
        <g clip-path="url(#_clip1)">
            <g transform="matrix(1,0,0,1,0.60021,0.573255)">
                <path d="M611.41,363.38C620.035,336.446 624.402,308.446 624.402,279.997C624.402,131.317 503.442,8.287 354.762,5.707L353.418,5.652C352.52,5.598 351.512,5.539 350.617,5.598L350,5.598C198.69,5.598 75.6,128.688 75.6,279.998C75.6,312.982 81.479,345.35 93.014,376.15C93.127,376.599 93.295,377.044 93.463,377.439C93.463,377.493 93.518,377.552 93.518,377.607C93.573,377.72 93.573,377.829 93.631,377.943C93.799,378.279 93.967,378.615 94.135,378.896C134.846,483.836 237.605,554.346 349.995,554.396L350.331,554.396C462.721,554.228 562.511,486.634 604.571,382.136C605.634,380.065 606.364,378.272 606.868,376.48C606.923,376.312 606.981,376.144 606.981,375.976C608.493,371.886 609.95,367.745 611.294,363.601C611.349,363.491 611.349,363.437 611.403,363.378L611.41,363.38ZM600.547,359.349C593.715,368.083 572.098,392.165 527.859,412.943C543.371,377.72 548.578,347.201 549.98,336.896C577.14,328.775 599.261,318.416 611.636,305.591C609.843,323.845 606.093,341.821 600.546,359.349L600.547,359.349ZM451.027,355.654C449.57,369.877 445.035,404.822 432.601,441.166C409.867,444.806 384.386,447.044 355.937,447.326L355.941,361.365C384.949,361.197 418.101,359.349 451.027,355.654L451.027,355.654ZM344.347,540.794C309.515,528.419 286.949,491.849 272.613,453.938C294.23,456.849 318.14,458.642 344.347,458.868L344.347,540.794ZM355.882,540.177L355.882,458.864C382.316,458.583 406.339,456.681 428.011,453.544C413.843,489.61 391.386,524.778 355.882,540.177ZM344.347,447.328C316.234,447.047 290.867,444.922 268.132,441.449C256.093,405.219 251.054,370.051 249.316,355.656C282.187,359.352 315.339,361.199 344.293,361.367L344.293,447.328L344.347,447.328ZM237.497,354.258C238.786,366.633 243.208,401.692 255.024,439.266C231.114,434.954 210.336,429.243 192.473,422.914C173.711,387.801 165.703,355.211 162.793,340.312C185.641,346.305 211.289,350.894 237.496,354.257L237.497,354.258ZM259.282,451.922C269.36,480.145 283.809,508.539 304.36,528.641C255.473,507.809 222.88,473.032 201.43,438.426C218.399,443.688 237.61,448.391 259.282,451.922ZM441.562,451.36C465.027,447.215 485.578,441.618 503.554,435.231C481.659,472.805 446.492,511.11 390.434,531.774C414.516,510.833 430.7,480.93 441.563,451.36L441.562,451.36ZM445.875,438.817C457.914,401.352 461.777,366.633 462.844,354.2C489.164,350.84 514.866,346.247 537.774,340.255C535.422,354.536 528.758,385.841 511.844,419.888C493.308,427.282 471.409,433.947 445.875,438.818L445.875,438.817ZM350.004,17.197L351.07,17.197C351.687,17.197 352.3,17.251 352.918,17.251L354.543,17.306L354.597,17.306C489.777,19.603 601.107,125.946 612.027,258.556C582.347,228.259 498.407,213.587 468.947,209.275C465.811,208.771 462.842,211.01 462.396,214.146C461.947,217.283 464.131,220.252 467.268,220.697C553.229,233.299 611.018,257.658 611.018,281.291C611.018,322.338 476.168,349.893 350.168,349.893C224.158,349.897 89.258,322.291 89.258,281.241C89.258,257.272 144.977,233.585 231.158,220.929C234.294,220.48 236.478,217.515 236.029,214.378C235.579,211.523 233.118,209.449 230.318,209.449C230.037,209.449 229.759,209.449 229.478,209.503C184.119,216.167 114.178,230.558 88.018,258.054C99.217,123.374 212.398,17.204 349.988,17.204L350.004,17.197ZM88.374,305.267C100.749,318.259 122.983,328.732 150.421,336.908C152.214,347.435 158.71,379.916 176.46,416.877C130.819,398.174 108.362,377.006 104.108,372.693C104.108,372.638 104.053,372.525 104.053,372.412C95.822,350.736 90.615,328.224 88.373,305.267L88.374,305.267ZM114.749,396.771C129.253,407.298 152.101,420.962 184.749,432.833C206.14,471.306 240.19,511.903 293.559,536.543C216.954,519.352 150.419,468.055 114.749,396.773L114.749,396.771ZM411.779,535.541C466.658,510.174 500.037,468.061 520.249,428.861C552.952,415.252 575.577,399.349 590.194,386.58C556.421,462.572 490.288,516.72 411.774,535.54L411.779,535.541Z" style="fill-rule:nonzero;"/>
                <path d="M207.31,149.07C214.197,155.285 223.271,159.093 233.24,159.093C239.849,159.093 246.064,157.413 251.552,154.499L265.497,172.14C260.122,176.621 256.704,183.339 256.704,190.788C256.704,204.171 267.626,215.093 281.009,215.093C294.392,215.093 305.314,204.171 305.314,190.788C305.314,177.405 294.392,166.483 281.009,166.483C279.329,166.483 277.763,166.651 276.193,166.987L260.849,147.553C267.849,140.498 272.161,130.811 272.161,120.17C272.161,117.873 271.938,115.576 271.543,113.393L358.512,89.928C362.938,100.514 372.457,108.408 384.047,110.479L380.743,171.295C366.688,173.869 355.989,186.248 355.989,201.029C355.989,207.244 357.891,213.013 361.086,217.83L314.941,250.928C307.941,244.486 298.589,240.569 288.339,240.569C266.554,240.569 248.859,258.264 248.859,280.049C248.859,301.834 266.554,319.529 288.339,319.529C310.124,319.529 327.819,301.834 327.819,280.049C327.819,272.713 325.749,265.826 322.218,259.944L369.316,226.174C374.132,229.42 379.957,231.326 386.226,231.326C395.577,231.326 403.98,227.068 409.523,220.349L485.347,269.294C483.948,272.599 483.163,276.239 483.163,280.048C483.163,295.11 495.429,307.376 510.491,307.376C525.553,307.376 537.819,295.11 537.819,280.048C537.819,264.986 525.553,252.72 510.491,252.72C503.437,252.72 496.995,255.462 492.124,259.888L415.124,210.216C416.019,207.306 416.523,204.279 416.523,201.087C416.523,186.47 406.109,174.263 392.332,171.407L395.636,110.645C406.667,108.852 415.964,101.798 420.781,92.11L484.843,137.356C482.882,140.829 481.765,144.805 481.765,149.004C481.765,162.109 492.46,172.805 505.566,172.805C518.671,172.805 529.367,162.11 529.367,149.004C529.367,135.899 518.672,125.203 505.566,125.203C500.918,125.203 496.551,126.547 492.91,128.899L424.199,80.403C424.312,79.281 424.367,78.106 424.367,76.988C424.367,58.117 409.023,42.773 390.152,42.773C371.281,42.773 355.937,58.117 355.937,76.988C355.937,77.606 355.992,78.219 356.05,78.781L267.905,102.582C261.464,90.039 248.362,81.414 233.354,81.414C211.905,81.414 194.432,98.887 194.432,120.336C194.432,127.618 196.503,134.449 199.975,140.274L154.67,184.008C152.6,183.223 150.413,182.719 148.12,182.719C137.929,182.719 129.694,191.008 129.694,201.145C129.694,211.336 137.983,219.571 148.12,219.571C158.257,219.571 166.546,211.282 166.546,201.145C166.546,197.559 165.483,194.2 163.69,191.345L207.31,149.07ZM293.716,190.793C293.716,197.793 288.005,203.504 281.005,203.504C274.005,203.504 268.294,197.793 268.294,190.793C268.294,183.793 274.005,178.082 281.005,178.082C288.005,178.078 293.716,183.793 293.716,190.793ZM510.376,264.266C519.056,264.266 526.11,271.321 526.11,280C526.11,288.679 519.055,295.734 510.376,295.734C501.696,295.734 494.642,288.679 494.642,280C494.642,271.321 501.697,264.266 510.376,264.266ZM517.712,148.906C517.712,155.625 512.224,161.172 505.505,161.172C498.786,161.172 493.239,155.684 493.239,148.906C493.239,142.128 498.727,136.699 505.505,136.699C512.224,136.644 517.712,142.133 517.712,148.906ZM288.282,307.946C272.884,307.946 260.395,295.403 260.395,280.059C260.395,264.661 272.938,252.172 288.282,252.172C303.68,252.172 316.169,264.715 316.169,280.059C316.169,295.399 303.681,307.946 288.282,307.946ZM404.872,200.986C404.872,211.291 396.474,219.689 386.169,219.689C375.864,219.689 367.466,211.291 367.466,200.986C367.466,190.681 375.864,182.283 386.169,182.283C396.474,182.283 404.872,190.681 404.872,200.986ZM390.091,54.156C402.579,54.156 412.771,64.347 412.771,76.836C412.771,89.325 402.58,99.516 390.091,99.516C377.603,99.516 367.411,89.325 367.411,76.836C367.407,64.348 377.544,54.156 390.091,54.156ZM233.231,92.851C248.293,92.851 260.559,105.117 260.559,120.179C260.559,135.241 248.293,147.507 233.231,147.507C218.169,147.507 205.903,135.241 205.903,120.179C205.903,105.117 218.169,92.851 233.231,92.851ZM148.001,207.871C144.192,207.871 141.114,204.793 141.114,200.984C141.114,197.176 144.192,194.098 148.001,194.098C151.809,194.098 154.888,197.176 154.888,200.984C154.888,204.793 151.809,207.871 148.001,207.871Z" style="fill-rule:nonzero;"/>
            </g>
        </g>
    </g>
</svg>
