<?xml version="1.0" encoding="UTF-8" standalone="no"?>
<!DOCTYPE svg PUBLIC "-//W3C//DTD SVG 1.1//EN" "http://www.w3.org/Graphics/SVG/1.1/DTD/svg11.dtd">
<svg width="100%" height="100%" viewBox="0 0 484 468" version="1.1" xmlns="http://www.w3.org/2000/svg" xmlns:xlink="http://www.w3.org/1999/xlink" xml:space="preserve" xmlns:serif="http://www.serif.com/" style="fill-rule:evenodd;clip-rule:evenodd;stroke-linejoin:round;stroke-miterlimit:2;">
    <g id="main" transform="matrix(1,0,0,1,-108.461,-46.2372)">
        <rect x="108.461" y="46.237" width="483.075" height="467.529" style="fill:none;"/>
        <clipPath id="_clip1">
            <rect x="108.461" y="46.237" width="483.075" height="467.529"/>
        </clipPath>
        <g clip-path="url(#_clip1)">
            <g transform="matrix(1,0,0,1,0.460867,0.2372)">
                <path d="M238.4,64.336C241.209,64.336 243.756,65.488 245.603,67.379C247.408,69.231 248.525,71.785 248.525,74.649C248.525,77.434 247.392,79.961 245.556,81.801L245.56,81.805C243.728,83.637 241.197,84.77 238.404,84.77C235.545,84.77 232.986,83.652 231.134,81.848C229.244,80.004 228.095,77.457 228.095,74.648C228.095,71.762 229.224,69.191 231.084,67.332L231.084,67.32C232.943,65.461 235.517,64.332 238.408,64.332L238.4,64.336ZM344.73,79.621C341.652,79.621 339.156,77.121 339.156,74.047C339.156,70.969 341.656,68.469 344.73,68.469L462.15,68.469C465.228,68.469 467.724,70.969 467.724,74.047C467.724,77.125 465.224,79.621 462.15,79.621L344.73,79.621ZM309.273,446.071L309.273,470.954C309.273,475.962 307.222,480.516 303.929,483.829C300.625,487.153 296.07,489.22 291.085,489.22L246.202,489.22C240.233,489.22 234.69,490.216 229.6,492.212C224.522,494.204 219.835,497.2 215.569,501.2C215.417,501.356 215.323,501.509 215.292,501.642C215.265,501.763 215.288,501.919 215.358,502.106C215.436,502.302 215.538,502.442 215.647,502.52C215.733,502.579 215.862,502.614 216.03,502.614L483.89,502.614C484.074,502.614 484.23,502.571 484.343,502.493C484.464,502.411 484.57,502.278 484.632,502.11L484.699,501.95C484.726,501.841 484.726,501.739 484.707,501.649C484.675,501.517 484.589,501.372 484.449,501.224C480.128,497.204 475.425,494.2 470.344,492.208C465.27,490.22 459.75,489.224 453.793,489.224L408.91,489.224C403.894,489.224 399.328,487.161 396.012,483.841C392.707,480.532 390.656,475.974 390.656,470.958L390.656,446.075L309.269,446.075L309.273,446.071ZM401.812,446.071L401.812,470.954C401.812,472.919 402.613,474.704 403.902,475.997C405.179,477.274 406.957,478.067 408.917,478.067L453.8,478.067C461.125,478.067 467.995,479.325 474.402,481.837C480.801,484.345 486.679,488.095 492.043,493.079L492.11,493.145C493.883,494.856 495.055,496.95 495.563,499.208C496.043,501.329 495.922,503.555 495.161,505.719C495.118,505.868 495.067,506.016 495.008,506.161C494.106,508.466 492.559,510.36 490.625,511.684C488.672,513.02 486.348,513.766 483.895,513.766L216.035,513.766C213.582,513.766 211.277,513.012 209.336,511.672C207.418,510.344 205.894,508.454 204.992,506.161C204.093,503.876 203.929,501.485 204.441,499.208C204.941,496.993 206.078,494.934 207.801,493.243L207.941,493.106C213.265,488.114 219.144,484.36 225.546,481.848C231.968,479.329 238.862,478.071 246.198,478.071L291.081,478.071C293.007,478.071 294.769,477.274 296.042,475.993C297.319,474.707 298.116,472.926 298.116,470.957L298.116,446.074L130.656,446.074C124.555,446.074 119.004,443.574 114.984,439.551C110.961,435.528 108.461,429.977 108.461,423.875L108.461,115.855C108.461,109.753 110.961,104.203 114.984,100.179C119.004,96.156 124.558,93.656 130.656,93.656L188.941,93.656C192.019,93.656 194.515,96.152 194.515,99.23C194.515,102.308 192.015,104.804 188.941,104.804L130.656,104.804C127.637,104.804 124.875,106.054 122.867,108.062C120.859,110.074 119.609,112.831 119.609,115.855L119.609,423.875C119.609,426.894 120.859,429.656 122.867,431.668C124.875,433.676 127.637,434.926 130.656,434.926L569.336,434.926C572.36,434.926 575.121,433.676 577.129,431.668C579.137,429.66 580.383,426.898 580.383,423.875L580.383,115.855C580.383,112.835 579.137,110.07 577.129,108.062C575.121,106.054 572.36,104.804 569.336,104.804L515.945,104.804C512.867,104.804 510.371,102.308 510.371,99.23C510.371,96.152 512.867,93.656 515.945,93.656L569.336,93.656C575.438,93.656 580.992,96.156 585.012,100.179C589.036,104.202 591.536,109.753 591.536,115.855L591.536,423.875C591.536,429.977 589.036,435.527 585.012,439.551C580.993,443.574 575.438,446.074 569.336,446.074L401.806,446.074L401.812,446.071ZM350.003,424.341C346.089,424.341 342.534,422.743 339.956,420.169C337.37,417.583 335.769,414.025 335.769,410.11C335.769,406.184 337.366,402.626 339.94,400.051C342.519,397.473 346.077,395.879 349.999,395.879C353.914,395.879 357.472,397.481 360.058,400.067C362.633,402.645 364.23,406.199 364.23,410.114C364.23,414.039 362.633,417.594 360.058,420.173L359.824,420.388C357.262,422.837 353.801,424.341 350.004,424.341L350.003,424.341ZM345.187,414.911C346.417,416.142 348.124,416.903 350.003,416.903C351.812,416.903 353.444,416.204 354.655,415.071L354.808,414.911C356.038,413.681 356.8,411.982 356.8,410.111C356.8,408.228 356.038,406.525 354.808,405.29C353.589,404.071 351.886,403.314 350.007,403.314C348.136,403.314 346.437,404.075 345.202,405.306C343.972,406.536 343.21,408.236 343.21,410.111C343.21,411.993 343.968,413.693 345.19,414.911L345.187,414.911ZM522.827,127.841C520.772,127.841 519.108,126.177 519.108,124.126C519.108,122.072 520.772,120.408 522.827,120.408L555.737,120.408C558.576,120.408 561.162,121.572 563.037,123.466C564.885,125.337 566.026,127.912 566.026,130.775L566.026,357.855C566.026,360.683 564.873,363.273 563.018,365.152C561.147,367.042 558.577,368.222 555.737,368.222L144.277,368.222C141.437,368.222 138.839,367.05 136.96,365.171L136.734,364.921C134.988,363.066 133.906,360.574 133.906,357.855L133.906,135.875C133.906,131.609 135.66,127.746 138.476,124.945C141.3,122.14 145.191,120.402 149.453,120.402L185.625,120.402C187.676,120.402 189.344,122.066 189.344,124.121C189.344,126.171 187.676,127.835 185.625,127.835L149.453,127.835C147.207,127.835 145.172,128.738 143.703,130.199C142.246,131.648 141.34,133.652 141.34,135.875L141.34,357.855C141.34,358.589 141.621,359.269 142.086,359.792L142.211,359.913C142.746,360.448 143.476,360.784 144.269,360.784L555.729,360.784C556.511,360.784 557.218,360.464 557.725,359.952C558.257,359.413 558.585,358.671 558.585,357.851L558.585,130.771C558.585,129.927 558.265,129.185 557.745,128.661C557.241,128.153 556.53,127.837 555.733,127.837L522.823,127.837L522.827,127.841ZM313.907,270.021C313.305,271.978 311.231,273.076 309.274,272.474C307.317,271.877 306.219,269.799 306.821,267.842C309.602,258.802 314.961,250.787 322.137,244.787C329.098,238.966 337.77,235.033 347.449,233.877C347.597,233.861 347.738,233.853 347.882,233.853L352.109,233.849C352.324,233.849 352.539,233.865 352.742,233.9C362.343,235.084 370.941,239.006 377.859,244.787C385.035,250.787 390.394,258.799 393.175,267.842C393.772,269.799 392.675,271.873 390.722,272.475C388.765,273.076 386.69,271.979 386.089,270.022C383.737,262.366 379.19,255.573 373.097,250.483C367.265,245.608 360.015,242.295 351.913,241.287L348.081,241.287C339.979,242.299 332.729,245.612 326.897,250.483C320.803,255.573 316.256,262.366 313.905,270.022L313.907,270.021ZM446.827,264.256C446.827,266.306 445.163,267.97 443.112,267.97C441.061,267.97 439.397,266.306 439.397,264.256C439.397,258.97 437.112,253.631 434.889,248.455C429.819,248.99 424.674,248.349 419.881,246.584C414.319,244.533 409.236,240.974 405.303,235.979C401.374,230.99 399.1,225.217 398.413,219.323C397.823,214.283 398.397,209.155 400.092,204.362C397.772,202.768 395.362,201.272 392.87,199.873C390.366,198.467 387.807,197.182 385.198,196.014C384.209,197.135 383.053,198.299 381.768,199.483C379.354,201.705 376.42,204.061 373.338,206.346C366.706,211.26 358.85,213.756 350.947,213.862C343.022,213.963 335.049,211.651 328.228,206.944C324.787,204.572 321.435,202.084 318.681,199.705C317.228,198.447 315.924,197.205 314.834,196.006C312.217,197.174 309.65,198.467 307.135,199.877C304.642,201.272 302.236,202.772 299.912,204.365C301.603,209.155 302.181,214.283 301.592,219.326C300.904,225.217 298.631,230.99 294.701,235.978C290.767,240.971 285.685,244.533 280.123,246.583C275.35,248.341 270.221,248.982 265.17,248.458C264.412,250.412 263.709,252.388 263.084,254.388C262.166,257.318 261.408,260.275 260.861,263.244C260.494,265.259 258.561,266.591 256.549,266.22C254.537,265.853 253.205,263.919 253.572,261.908C254.185,258.564 255.01,255.322 255.998,252.177C256.967,249.087 258.092,246.068 259.322,243.111C259.928,241.392 261.717,240.334 263.557,240.701C268.244,241.638 273.107,241.251 277.569,239.611C281.877,238.025 285.815,235.263 288.866,231.388C291.92,227.509 293.682,223.033 294.217,218.478C294.772,213.744 294.01,208.923 292.006,204.587C291.28,203.017 291.737,201.103 293.182,200.04C296.487,197.618 299.932,195.396 303.502,193.396C306.967,191.454 310.6,189.693 314.389,188.13C316.03,187.357 318.03,187.884 319.061,189.439C319.948,190.767 321.534,192.368 323.538,194.099C326.069,196.287 329.202,198.611 332.444,200.845C337.975,204.658 344.44,206.536 350.866,206.455C357.237,206.372 363.577,204.357 368.928,200.392C371.779,198.283 374.498,196.095 376.748,194.025C378.6,192.322 380.076,190.748 380.947,189.443C381.904,187.998 383.783,187.38 385.447,188.064C389.299,189.646 392.986,191.431 396.502,193.4C400.041,195.384 403.459,197.583 406.736,199.982C408.197,200.986 408.768,202.927 408.002,204.591C405.994,208.927 405.236,213.747 405.791,218.482C406.326,223.037 408.088,227.513 411.143,231.392C414.197,235.267 418.135,238.029 422.44,239.615C426.901,241.259 431.764,241.642 436.452,240.705L436.456,240.713C438.155,240.373 439.916,241.267 440.608,242.927L441.674,245.416C444.217,251.326 446.838,257.42 446.838,264.256L446.827,264.256ZM227.987,305.483L475.327,305.483C480.088,305.483 484.37,303.58 487.456,300.494C490.542,297.408 492.444,293.123 492.444,288.365L492.444,70.795C492.444,66.1 490.526,61.803 487.409,58.69C484.319,55.601 480.057,53.675 475.327,53.675L227.987,53.675C223.323,53.675 219.041,55.62 215.928,58.733C212.814,61.847 210.869,66.128 210.869,70.792L210.869,288.362C210.869,293.093 212.795,297.358 215.885,300.444C218.998,303.558 223.295,305.48 227.99,305.48L227.987,305.483ZM475.327,312.916L227.987,312.916C221.252,312.916 215.089,310.166 210.624,305.701C206.198,301.272 203.432,295.154 203.432,288.361L203.432,70.791C203.432,64.073 206.213,57.932 210.671,53.475C215.128,49.018 221.269,46.237 227.983,46.237L475.323,46.237C482.116,46.237 488.233,48.999 492.663,53.429C497.123,57.893 499.877,64.054 499.877,70.792L499.877,288.362C499.877,295.174 497.147,301.311 492.709,305.749C488.272,310.187 482.135,312.917 475.322,312.917L475.327,312.916ZM472.87,103.396L472.87,277.756C472.87,279.924 471.913,281.971 470.428,283.455L470.405,283.479C468.916,284.959 466.874,285.913 464.709,285.913L238.789,285.913C236.555,285.913 234.493,284.979 232.989,283.538C231.426,282.041 230.442,279.959 230.442,277.756L230.442,103.396C230.442,101.115 231.395,99.025 232.907,97.514C232.996,97.424 233.086,97.342 233.184,97.264C234.676,95.892 236.657,95.049 238.793,95.049L464.713,95.049C466.92,95.049 469.002,96.033 470.499,97.596C471.94,99.1 472.874,101.162 472.874,103.4L472.87,103.396ZM465.436,277.756L465.436,103.396C465.436,103.15 465.323,102.912 465.155,102.732C465.006,102.58 464.846,102.482 464.713,102.482L238.793,102.482C238.598,102.482 238.411,102.553 238.258,102.674L238.164,102.771C237.989,102.943 237.879,103.17 237.879,103.4L237.879,277.76C237.879,277.893 237.977,278.049 238.129,278.202C238.305,278.374 238.543,278.483 238.789,278.483L464.709,278.483C464.85,278.483 465.022,278.385 465.17,278.237L465.182,278.221C465.331,278.073 465.428,277.905 465.428,277.76L465.436,277.756ZM279.506,64.346C282.397,64.346 284.971,65.475 286.83,67.335L286.99,67.51C288.752,69.358 289.818,71.862 289.818,74.663C289.818,77.471 288.67,80.018 286.779,81.862C284.928,83.667 282.373,84.784 279.51,84.784C276.713,84.784 274.186,83.651 272.354,81.819C270.522,79.987 269.393,77.46 269.393,74.663C269.393,71.799 270.51,69.245 272.315,67.389C274.158,65.499 276.705,64.35 279.514,64.35L279.506,64.346ZM282.889,71.276C282.045,70.432 280.858,69.92 279.506,69.92C278.24,69.92 277.108,70.428 276.291,71.264C275.467,72.108 274.963,73.299 274.963,74.659C274.963,75.917 275.471,77.053 276.291,77.874C277.115,78.698 278.248,79.202 279.506,79.202C280.865,79.202 282.057,78.694 282.901,77.87C283.733,77.057 284.244,75.92 284.244,74.659C284.244,73.362 283.776,72.213 283.002,71.381L282.889,71.276ZM259.057,64.346C261.865,64.346 264.412,65.499 266.252,67.385C268.061,69.241 269.174,71.796 269.174,74.659C269.174,77.44 268.041,79.967 266.209,81.803L266.194,81.819C264.358,83.647 261.834,84.776 259.057,84.776C256.19,84.776 253.635,83.659 251.783,81.854C249.893,80.01 248.744,77.463 248.744,74.655C248.744,71.768 249.873,69.198 251.733,67.338L251.733,67.327C253.588,65.467 256.166,64.338 259.057,64.338L259.057,64.346ZM262.268,71.264C261.455,70.428 260.319,69.92 259.057,69.92C257.701,69.92 256.514,70.432 255.674,71.276L255.666,71.272C254.83,72.116 254.318,73.303 254.318,74.659C254.318,75.92 254.826,77.057 255.658,77.87C256.502,78.694 257.693,79.202 259.057,79.202C260.318,79.202 261.455,78.698 262.271,77.881L262.283,77.87C263.096,77.057 263.6,75.917 263.6,74.655C263.6,73.295 263.092,72.104 262.272,71.26L262.268,71.264ZM241.627,71.264C240.814,70.428 239.674,69.92 238.412,69.92C237.06,69.92 235.869,70.432 235.029,71.276L235.021,71.272C234.185,72.116 233.674,73.303 233.674,74.659C233.674,75.92 234.181,77.057 235.013,77.87C235.857,78.694 237.049,79.202 238.408,79.202C239.666,79.202 240.802,78.694 241.623,77.874L241.634,77.874C242.451,77.061 242.955,75.92 242.955,74.659C242.955,73.299 242.447,72.108 241.627,71.264L241.627,71.264Z" style="fill-rule:nonzero;"/>
            </g>
        </g>
    </g>
</svg>
